HIERARCHY
ROOT root
{
	OFFSET 0.000000 0.000000 0.000000
	CHANNELS 6 Xposition Yposition Zposition Zrotation Yrotation Xrotation
	JOINT lhip
	{
		OFFSET 0.058581 -0.082280 -0.017664
		CHANNELS 3 Zrotation Yrotation Xrotation
		JOINT lknee
		{
			OFFSET 0.043451 -0.386469 0.008037
			CHANNELS 3 Zrotation Yrotation Xrotation
			JOINT lankle
			{
				OFFSET -0.014790 -0.426874 -0.037428
				CHANNELS 3 Zrotation Yrotation Xrotation
				JOINT ltoe
				{
					OFFSET 0.041054 -0.060286 0.122042
					CHANNELS 3 Zrotation Yrotation Xrotation
					End Site
					{
						OFFSET 0.000000 0.000000 0.000000
					}
				}
			}
		}
	}
	JOINT rhip
	{
		OFFSET -0.060310 -0.090513 -0.013543
		CHANNELS 3 Zrotation Yrotation Xrotation
		JOINT rknee
		{
			OFFSET -0.043257 -0.383688 -0.004843
			CHANNELS 3 Zrotation Yrotation Xrotation
			JOINT rankle
			{
				OFFSET 0.019056 -0.420046 -0.034562
				CHANNELS 3 Zrotation Yrotation Xrotation
				JOINT rtoe
				{
					OFFSET -0.034840 -0.062106 0.130323
					CHANNELS 3 Zrotation Yrotation Xrotation
					End Site
					{
						OFFSET 0.000000 0.000000 0.000000
					}
				}
			}
		}
	}
	JOINT lowerback
	{
		OFFSET 0.004439 0.124404 -0.038385
		CHANNELS 3 Zrotation Yrotation Xrotation
		JOINT upperback
		{
			OFFSET 0.004488 0.137956 0.026820
			CHANNELS 3 Zrotation Yrotation Xrotation
			JOINT chest
			{
				OFFSET -0.002265 0.056032 0.002855
				CHANNELS 3 Zrotation Yrotation Xrotation
				JOINT lowerneck
				{
					OFFSET -0.013390 0.211636 -0.033468
					CHANNELS 3 Zrotation Yrotation Xrotation
					JOINT upperneck
					{
						OFFSET 0.010113 0.088937 0.050410
						CHANNELS 3 Zrotation Yrotation Xrotation
						End Site
						{
							OFFSET 0.000000 0.000000 0.000000
						}
					}
				}
				JOINT lclavicle
				{
					OFFSET 0.071702 0.114000 -0.018898
					CHANNELS 3 Zrotation Yrotation Xrotation
					JOINT lshoulder
					{
						OFFSET 0.122921 0.045205 -0.019046
						CHANNELS 3 Zrotation Yrotation Xrotation
						JOINT lelbow
						{
							OFFSET 0.255332 -0.015649 -0.022946
							CHANNELS 3 Zrotation Yrotation Xrotation
							JOINT lwrist
							{
								OFFSET 0.265709 0.012698 -0.007375
								CHANNELS 3 Zrotation Yrotation Xrotation
								End Site
								{
									OFFSET 0.000000 0.000000 0.000000
								}
							}
						}
					}
				}
				JOINT rclavicle
				{
					OFFSET -0.082954 0.112472 -0.023707
					CHANNELS 3 Zrotation Yrotation Xrotation
					JOINT rshoulder
					{
						OFFSET -0.113228 0.046853 -0.008472
						CHANNELS 3 Zrotation Yrotation Xrotation
						JOINT relbow
						{
							OFFSET -0.260127 -0.014369 -0.031269
							CHANNELS 3 Zrotation Yrotation Xrotation
							JOINT rwrist
							{
								OFFSET -0.269108 0.006794 -0.006027
								CHANNELS 3 Zrotation Yrotation Xrotation
								End Site
								{
									OFFSET 0.000000 0.000000 0.000000
								}
							}
						}
					}
				}
			}
		}
	}
}
MOTION
Frames: 11
Frame Time: 0.033333
0.306414 -1.869113 1.029138 -178.720505 0.393131 91.571207 1.260269 1.794090 -4.432967 -7.388515 -8.116284 0.009343 1.320192 7.494168 -0.338262 0.000000 -0.000000 0.000000 1.212936 -5.768367 -3.215932 5.303817 -3.747931 -0.959906 2.298005 -2.917326 -2.918437 0.000000 -0.000000 0.000000 -0.320411 2.407878 12.687366 -1.544440 -0.855131 1.682391 1.861324 0.521235 -9.188882 -5.295930 13.982739 16.613458 1.030945 18.987538 4.257875 -24.469786 -3.304833 5.399527 -54.644846 -5.244862 5.240808 19.392371 -25.256182 -1.070399 3.524262 -3.505901 -9.929383 19.766343 6.382919 7.688004 53.607705 11.283092 11.880964 -6.237019 26.901621 17.078955 11.255502 1.949674 0.795772 
0.306857 -1.868984 1.028955 -178.446617 0.455578 91.728264 1.368489 1.716071 -4.781110 -7.427148 -8.107779 0.273235 1.222420 7.427146 -0.422858 0.000000 -0.000000 0.000000 1.369288 -5.831355 -3.532371 5.243551 -3.820975 -0.673941 2.381135 -3.072336 -3.048303 0.000000 -0.000000 0.000000 -0.021185 2.382135 13.140064 -1.659521 -0.830029 0.727060 1.795193 0.491332 -9.002901 -5.169866 13.907233 16.607541 1.020435 19.142965 4.158313 -24.429416 -2.980406 5.500039 -54.637582 -4.808710 5.335909 19.382345 -24.846900 -0.924203 3.361975 -3.635085 -11.449521 19.518731 6.129047 7.604764 53.850844 11.196744 12.131119 -6.023341 26.868684 17.669305 10.663003 2.330663 0.485886 
0.307276 -1.868147 1.029152 -178.173369 0.429402 91.724413 1.371759 1.583376 -4.807567 -7.425132 -8.172710 0.388090 1.183269 7.337646 -0.417649 0.000000 -0.000000 0.000000 1.396148 -5.796539 -3.405072 5.172520 -3.916023 -0.713520 2.345122 -3.132476 -3.028498 0.000000 -0.000000 0.000000 0.031607 2.450013 13.087213 -1.706648 -0.878773 0.643685 1.866688 0.525458 -8.842729 -5.144518 13.702552 16.784890 1.091470 19.581577 3.531456 -24.648345 -3.017340 5.424672 -54.506395 -4.384838 5.220527 19.556127 -24.487695 -1.406742 2.257728 -3.337453 -10.943499 19.356094 6.212773 7.456279 53.937948 10.809737 12.127315 -6.132727 26.927901 17.711615 13.514645 1.535259 0.444915 
0.307936 -1.866994 1.029221 -177.780701 0.406163 91.814835 1.423528 1.444750 -4.847546 -7.449081 -8.355555 0.318387 1.145901 7.246960 -0.356665 0.000000 -0.000000 0.000000 1.473848 -5.856469 -3.273309 5.083338 -3.912583 -0.916358 2.331448 -3.238694 -2.969122 0.000000 -0.000000 0.000000 0.100406 2.469291 13.109827 -1.754079 -0.898045 0.487323 1.953388 0.573862 -8.772424 -4.557630 13.865339 16.597512 1.231198 20.548126 2.738089 -24.800620 -2.844313 5.315938 -54.453603 -4.036687 5.004141 19.469909 -24.018003 -1.464508 2.272553 -3.438186 -10.569607 19.127664 6.149167 7.453439 54.059201 10.680603 12.162756 -6.120673 26.779293 17.752249 13.863007 1.336498 0.454461 
0.308110 -1.866506 1.029258 -177.659654 0.393596 91.823861 1.443911 1.410048 -4.758789 -7.457266 -8.448160 0.158712 1.116173 7.241770 -0.290101 0.000000 -0.000000 0.000000 1.500292 -5.865021 -3.166755 5.037154 -3.860809 -1.045751 2.334759 -3.290587 -2.943209 0.000000 -0.000000 0.000000 0.121855 2.475937 13.140439 -1.776558 -0.886502 0.488689 1.985241 0.577329 -8.796589 -4.204466 14.044019 16.436155 1.276553 20.991608 2.494801 -24.840105 -2.775409 5.276885 -54.459065 -3.980212 4.941265 19.388814 -23.914757 -1.396086 2.703256 -3.568604 -10.545563 19.080952 6.107463 7.496087 54.074326 10.730548 12.165560 -6.088345 26.652460 17.713345 12.999314 1.535342 0.490648 
0.308383 -1.865263 1.029240 -177.440811 0.345881 91.825460 1.469042 1.332549 -4.502335 -7.476959 -8.652716 -0.255234 1.029076 7.285086 -0.069314 0.000000 -0.000000 0.000000 1.514362 -5.861676 -2.885982 4.941606 -3.694394 -1.372088 2.347046 -3.417211 -2.856119 0.000000 -0.000000 0.000000 0.153026 2.525834 13.160676 -1.852258 -0.825041 0.586400 2.060488 0.559929 -8.892272 -3.459950 14.594740 16.091071 1.347541 22.130591 2.106928 -24.884206 -2.694570 5.195900 -54.545303 -3.902398 4.833755 19.279093 -23.857011 -1.252801 3.413280 -3.757502 -10.622914 19.026826 6.035117 7.612827 54.067004 10.826343 12.086904 -6.000307 26.328007 17.588991 11.294222 2.009552 0.549155 
0.308687 -1.863901 1.029241 -177.240123 0.290460 91.886948 1.480135 1.258406 -4.423730 -7.514761 -8.782031 -0.405560 0.997618 7.305741 0.020309 0.000000 -0.000000 0.000000 1.485056 -5.921588 -2.682485 4.907224 -3.535857 -1.653135 2.375544 -3.485874 -2.771677 0.000000 -0.000000 0.000000 0.127675 2.656543 13.041632 -1.927667 -0.785345 0.714775 2.160058 0.582984 -9.009886 -2.933582 15.480380 15.952592 1.469720 23.609547 1.756948 -24.902369 -2.803613 5.192362 -54.688199 -3.785818 4.726782 19.292229 -24.086822 -1.376536 3.311544 -3.723485 -10.652837 19.012271 6.029319 7.766510 54.059076 10.739582 11.886096 -6.111354 26.051412 17.370764 11.693052 2.061228 0.858036 
0.309051 -1.862751 1.029405 -177.011348 0.234942 91.960458 1.445951 1.157506 -4.538530 -7.533202 -8.823394 -0.177307 1.130759 7.261842 -0.131758 0.000000 -0.000000 0.000000 1.435644 -5.960294 -2.592466 4.916037 -3.470667 -1.747887 2.387695 -3.561025 -2.790377 0.000000 -0.000000 0.000000 0.076636 2.796640 12.917377 -1.966541 -0.784268 0.794433 2.214109 0.652799 -9.102074 -2.549344 16.381360 16.022632 1.508437 24.908889 1.422930 -24.857166 -2.957883 5.270800 -54.802460 -3.800202 4.653616 19.197492 -24.534823 -1.484910 3.154521 -3.679561 -10.648332 19.040077 6.020071 7.986129 54.049295 10.688045 11.659178 -6.363390 25.796169 17.089899 12.176330 2.091732 1.717009 
0.309365 -1.861684 1.029622 -176.769367 0.185641 92.002963 1.390713 1.055248 -4.646253 -7.539054 -8.860082 0.119360 1.340887 7.217395 -0.350849 0.000000 -0.000000 0.000000 1.364903 -5.953374 -2.647299 4.947894 -3.473206 -1.505807 2.399729 -3.646677 -2.970886 0.000000 -0.000000 0.000000 0.075704 2.861765 12.893106 -2.002338 -0.755738 0.799286 2.190663 0.708096 -9.123196 -2.260488 16.941192 16.004712 1.468451 25.647769 1.193733 -24.762604 -2.997237 5.288943 -54.888737 -3.959706 4.646493 19.073987 -25.116248 -1.363741 3.231869 -3.796808 -10.680664 19.053017 5.937714 8.122117 54.058029 10.685522 11.484406 -6.594408 25.598866 16.911456 11.832154 2.327846 2.679561 
0.309587 -1.860470 1.029853 -176.517919 0.152763 91.988218 1.343726 0.999779 -4.626653 -7.539659 -8.965032 0.310566 1.502182 7.193493 -0.544634 0.000000 -0.000000 0.000000 1.296177 -5.873010 -2.786256 4.980415 -3.490493 -0.957717 2.389452 -3.757585 -3.295799 0.000000 -0.000000 0.000000 0.127891 2.822296 12.979874 -2.034706 -0.679510 0.729728 2.122130 0.713557 -9.056049 -2.127518 17.077825 15.814291 1.405270 25.790505 1.148525 -24.689281 -2.936983 5.232243 -54.919695 -4.151664 4.705456 19.048773 -25.805080 -1.105421 3.434962 -3.984067 -10.711369 19.027322 5.825808 8.112470 54.106069 10.668937 11.383747 -6.748148 25.436051 16.710373 11.154811 2.480234 3.106137 
0.309799 -1.859161 1.030086 -176.275948 0.144445 91.973183 1.334894 0.976922 -4.595845 -7.571892 -9.116762 0.470305 1.596088 7.218510 -0.711718 0.000000 -0.000000 0.000000 1.258184 -5.853069 -3.054041 5.016420 -3.464232 -0.159117 2.361109 -3.832400 -3.684488 0.000000 -0.000000 0.000000 0.154886 2.732200 13.109112 -2.027410 -0.603141 0.619592 2.069048 0.704918 -8.950930 -2.229713 16.810351 15.549406 1.429291 25.494398 1.298215 -24.649832 -2.885523 5.116339 -54.918424 -4.237627 4.892802 19.208810 -26.557643 -1.032220 3.373131 -3.993564 -10.797673 18.929018 5.730776 7.891376 54.236575 10.463124 11.388923 -6.841821 25.325137 16.476789 11.867902 2.021442 2.693190 
